<mxfile host="app.diagrams.net" modified="2023-10-18T07:30:19.485Z" agent="Mozilla/5.0 (Windows NT 10.0; Win64; x64) AppleWebKit/537.36 (KHTML, like Gecko) Chrome/115.0.0.0 Safari/537.36" version="22.0.4" etag="Gl0qB0d8ZDzP3_rJ2KFr" type="github">
  <diagram name="Page-1" id="7_j79GaDi73mLctOwNKx">
    <mxGraphModel>
      <root>
        <mxCell id="0" />
        <mxCell id="1" parent="0" />
      </root>
    </mxGraphModel>
  </diagram>
</mxfile>
